<svg width="890" height="257" viewBox="0 0 890 257" fill="none" xmlns="http://www.w3.org/2000/svg">
<path d="M47.0313 243.875C44.7656 244.797 40.9063 245.563 37.4375 245.563C27.1406 245.547 21.1094 239.031 21.1094 228.703C21.125 217.219 28.2344 211.625 37.3906 211.641C41.4688 211.641 44.7188 212.563 47.0625 213.563L49.4219 204.313C47.375 203.234 42.8281 202 36.8594 202C21.4219 201.984 9.01565 211.766 9.00002 229.375C8.9844 244.078 18.0625 255.188 35.6875 255.203C41.8906 255.203 46.6563 254.063 48.7813 253L47.0313 243.875ZM56.3477 254.449L88.1914 254.48V244.684L67.9102 244.668L67.9414 202.871L56.3789 202.855L56.3477 254.449ZM92.6094 202.891L92.5938 231.672C92.5781 248.125 100.141 255.344 113 255.359C126.313 255.359 134.25 247.797 134.266 231.875L134.281 202.938L122.781 202.922L122.766 232.625C122.766 241.734 119.422 246.016 113.375 246.016C107.469 246 104.156 241.484 104.156 232.609L104.172 202.906L92.6094 202.891ZM144.238 254.297C146.801 254.688 151.035 255.078 156.707 255.078C166.848 255.094 173.051 253.422 176.754 250.422C179.926 247.828 182.051 244.172 182.066 239.5C182.066 232.844 177.754 228.391 171.926 226.781V226.625C177.676 224.484 180.348 220.188 180.348 215.594C180.348 210.938 177.77 207.406 174.223 205.5C170.504 203.281 166.191 202.594 159.16 202.578C153.41 202.578 147.285 203.016 144.27 203.625L144.238 254.297ZM155.676 211.375C156.66 211.219 158.098 211.063 160.598 211.063C165.816 211.078 168.77 213.156 168.77 217.047C168.77 220.875 165.504 223.406 159.457 223.391H155.66L155.676 211.375ZM155.66 231.734H159.598C165.348 231.75 169.957 233.813 169.957 239.031C169.941 244.453 165.332 246.453 160.113 246.438C158.145 246.438 156.785 246.438 155.645 246.281L155.66 231.734ZM205.203 254.355C208.063 254.746 212.313 255.137 218.281 255.137C228.266 255.152 236.438 253.012 241.813 248.512C246.719 244.309 250.297 237.496 250.297 227.621C250.313 218.512 246.984 212.152 241.688 208.168C236.766 204.402 230.484 202.652 220.813 202.637C214.984 202.637 209.469 203.012 205.234 203.684L205.203 254.355ZM216.797 212.043C217.781 211.809 219.453 211.59 222.016 211.59C231.922 211.605 238.125 217.262 238.047 227.98C238.047 240.309 231.219 246.121 220.781 246.027C219.344 246.027 217.75 246.027 216.766 245.809L216.797 212.043ZM288.188 223.359L269.422 223.344L269.438 212.625L289.328 212.641V203.078L257.875 203.047L257.844 254.641L290.359 254.672V245.109L269.406 245.094L269.422 232.844L288.188 232.859V223.359ZM313.516 254.695L324.922 254.711L324.938 236.258C326 236.414 327.359 236.492 328.875 236.492C335.688 236.508 341.516 234.82 345.438 231.07C348.469 228.164 350.141 223.898 350.156 218.836C350.156 213.789 347.953 209.492 344.703 206.883C341.297 204.133 336.234 202.758 329.125 202.742C322.094 202.742 317.094 203.195 313.547 203.789L313.516 254.695ZM324.953 211.992C325.797 211.773 327.375 211.539 329.719 211.539C335.469 211.555 338.734 214.383 338.734 219.133C338.719 224.414 334.938 227.555 328.797 227.539C327.141 227.539 325.922 227.461 324.938 227.227L324.953 211.992ZM379.406 241.512L383.328 254.762L395.734 254.777L379.953 203.168L364.828 203.152L349.203 254.73L361.156 254.746L364.813 241.496L379.406 241.512ZM366.469 232.777L369.516 221.824C370.344 218.84 371.094 214.949 371.859 211.887H372C372.766 214.965 373.672 218.777 374.578 221.84L377.734 232.793L366.469 232.777ZM402.539 254.543C405.398 254.934 409.648 255.324 415.617 255.324C425.602 255.34 433.773 253.199 439.148 248.699C444.055 244.496 447.633 237.684 447.633 227.809C447.648 218.699 444.32 212.34 439.023 208.355C434.102 204.59 427.82 202.84 418.148 202.824C412.32 202.824 406.805 203.199 402.57 203.871L402.539 254.543ZM414.133 212.23C415.117 211.996 416.789 211.777 419.352 211.777C429.258 211.793 435.461 217.449 435.383 228.168C435.383 240.496 428.555 246.309 418.117 246.215C416.68 246.215 415.086 246.215 414.102 245.996L414.133 212.23ZM485.527 223.547L466.762 223.531L466.777 212.813L486.668 212.828V203.266L455.215 203.234L455.184 254.828L487.699 254.859V245.297L466.746 245.281L466.762 233.031L485.527 233.047V223.547ZM495.574 254.867L527.418 254.898V245.102L507.137 245.086L507.168 203.289L495.605 203.273L495.574 254.867ZM569.773 254.949L569.789 233.434L586.586 203.371L573.648 203.355L568.508 215.762C566.992 219.434 565.789 222.402 564.633 225.621H564.492C563.211 222.246 562.164 219.496 560.57 215.746L555.352 203.34L542.195 203.324L558.289 233.809L558.273 254.934L569.773 254.949ZM633.848 241.754L637.77 255.004L650.176 255.02L634.395 203.41L619.27 203.395L603.645 254.973L615.598 254.988L619.254 241.738L633.848 241.754ZM620.91 233.02L623.957 222.066C624.785 219.082 625.535 215.191 626.301 212.129H626.441C627.207 215.207 628.113 219.02 629.02 222.082L632.176 233.035L620.91 233.02ZM700.844 255.07L712.125 255.086L709.344 203.477H694.297L688.859 220.602C687.172 226.352 685.438 233.164 684 239.133H683.766C682.641 233.086 681.047 226.648 679.469 220.68L674.484 203.445L659.125 203.43L655.844 255.023L666.5 255.039L667.438 235.445C667.812 229.008 668.047 221.055 668.359 214.086H668.5C669.719 220.82 671.438 228.164 673.109 234.211L678.531 254.211H687.531L693.75 234.102C695.719 228.055 697.859 220.695 699.438 214.117H699.672C699.672 221.617 699.875 229.117 700.109 235.32L700.844 255.07ZM721.004 203.488L720.973 255.082L732.535 255.098L732.566 203.504L721.004 203.488ZM785.121 225.602L766.137 225.586V234.695H773.996L773.98 245.492C773.074 245.945 770.965 246.258 768.309 246.258C758.855 246.242 752.293 239.961 752.293 229.32C752.309 218.148 759.574 212.633 769.184 212.648C774.777 212.648 778.246 213.648 781.059 214.883L783.465 205.539C780.98 204.32 775.902 203.008 769.324 203.008C752.605 202.992 740.277 212.773 740.184 229.914C740.121 237.492 742.684 244.227 747.355 248.68C752.043 253.273 758.777 255.648 768.09 255.664C774.824 255.664 781.543 254.008 785.105 252.773L785.121 225.602ZM816.598 202.746C801.551 202.73 791.785 214.277 791.77 229.746C791.77 244.434 800.613 256.012 815.738 256.027C830.645 256.043 840.77 245.777 840.785 228.871C840.801 214.637 832.254 202.762 816.598 202.746ZM816.301 212.012C824.238 212.012 828.629 219.965 828.613 229.23C828.613 239.262 824.129 246.762 816.348 246.762C808.629 246.746 803.957 239.637 803.957 229.527C803.973 219.496 808.504 211.996 816.301 212.012ZM846.375 252.828C849.25 254.438 855 255.984 860.812 255.984C874.812 256 881.391 248.656 881.406 240C881.406 232.734 877.172 227.984 868.172 224.609C861.609 222.078 858.734 220.625 858.734 217.328C858.734 214.656 861.156 212.359 866.141 212.359C871.141 212.375 874.766 213.828 876.812 214.813L879.375 205.406C876.359 204.031 872.125 202.797 866.375 202.781C854.344 202.781 847.078 209.5 847.078 218.313C847.062 225.813 852.594 230.578 861.062 233.563C867.188 235.781 869.609 237.625 869.609 240.844C869.609 244.219 866.797 246.422 861.5 246.422C856.578 246.422 851.812 244.813 848.734 243.188L846.375 252.828Z" fill="black"/>
<path d="M0 135.922H83.5312V110.516H30.3594V2.17188H0V135.922ZM172.035 101.594L182.348 135.922H214.895L173.426 2.17188H133.738L92.8633 135.922H124.207L133.738 101.594H172.035ZM138.098 78.9688L146.035 50.5938C148.223 42.8594 150.207 32.7344 152.191 24.7969H152.582C154.566 32.7344 156.957 42.6562 159.332 50.5938L167.66 78.9688H138.098ZM227.594 129.766C235.141 133.938 250.219 137.906 265.484 137.906C302.203 137.906 319.469 118.859 319.469 96.4375C319.469 77.5781 308.344 65.2812 284.734 56.5469C267.469 50 259.938 46.2344 259.938 37.7031C259.938 30.75 266.281 24.7969 279.375 24.7969C292.484 24.7969 302 28.5625 307.359 31.1406L314.109 6.73438C306.172 3.17188 295.062 0 279.969 0C248.422 0 229.375 17.4531 229.375 40.2812C229.375 59.7188 243.859 72.0312 266.094 79.7656C282.156 85.5156 288.516 90.2812 288.516 98.6094C288.516 107.344 281.172 113.109 267.281 113.109C254.375 113.109 241.875 108.938 233.75 104.766L227.594 129.766ZM398.039 135.922H428.398V27.5781H464.914V2.17188H362.117V27.5781H398.039V135.922ZM560.543 54.7656H511.34V26.9844H563.527V2.17188H480.98V135.922H566.309V111.125H511.34V79.375H560.543V54.7656ZM617.488 86.3125C617.488 107.156 609.551 112.906 596.863 112.906C590.91 112.906 585.551 111.906 581.379 110.516L578.004 134.938C583.957 136.906 593.082 138.109 600.035 138.109C629.395 138.109 647.66 124.812 647.66 86.7031V2.17188H617.488V86.3125ZM742.309 101.594L752.621 135.922H785.168L743.699 2.17188H704.012L663.137 135.922H694.48L704.012 101.594H742.309ZM708.371 78.9688L716.309 50.5938C718.496 42.8594 720.48 32.7344 722.465 24.7969H722.855C724.84 32.7344 727.23 42.6562 729.605 50.5938L737.934 78.9688H708.371ZM797.863 129.766C805.41 133.938 820.488 137.906 835.754 137.906C872.473 137.906 889.738 118.859 889.738 96.4375C889.738 77.5781 878.613 65.2812 855.004 56.5469C837.738 50 830.207 46.2344 830.207 37.7031C830.207 30.75 836.551 24.7969 849.645 24.7969C862.754 24.7969 872.27 28.5625 877.629 31.1406L884.379 6.73438C876.441 3.17188 865.332 0 850.238 0C818.691 0 799.645 17.4531 799.645 40.2812C799.645 59.7188 814.129 72.0312 836.363 79.7656C852.426 85.5156 858.785 90.2812 858.785 98.6094C858.785 107.344 851.441 113.109 837.551 113.109C824.645 113.109 812.145 108.938 804.02 104.766L797.863 129.766Z" fill="black"/>
</svg>
