<?xml version="1.0" standalone="no"?>
<!DOCTYPE svg PUBLIC "-//W3C//DTD SVG 20010904//EN"
 "http://www.w3.org/TR/2001/REC-SVG-20010904/DTD/svg10.dtd">
<svg version="1.0" xmlns="http://www.w3.org/2000/svg"
 width="500.000000pt" height="500.000000pt" viewBox="0 0 500.000000 500.000000"
 preserveAspectRatio="xMidYMid meet">

<g transform="translate(0.000000,500.000000) scale(0.100000,-0.100000)"
fill="#ffffff" stroke="none">
<path d="M2340 4494 c-14 -2 -65 -9 -115 -15 -202 -25 -462 -108 -653 -210
-563 -299 -939 -825 -1049 -1464 -23 -139 -23 -481 0 -620 85 -491 322 -912
690 -1221 283 -238 604 -385 982 -451 138 -24 480 -24 620 0 376 65 699 213
982 451 368 309 605 728 690 1221 24 140 24 480 0 620 -151 874 -802 1526
-1667 1670 -90 15 -427 29 -480 19z m361 -54 c729 -74 1365 -560 1628 -1245
45 -118 84 -261 108 -400 24 -139 24 -461 0 -600 -74 -429 -255 -784 -552
-1081 -761 -763 -1997 -763 -2760 1 -295 294 -478 653 -552 1080 -24 139 -24
461 0 600 99 571 406 1039 883 1348 221 143 525 255 779 286 50 6 101 13 115
15 56 8 254 5 351 -4z"/>
<path d="M2320 4130 l0 -40 55 0 55 0 0 -170 0 -170 50 0 50 0 0 170 0 170 55
0 55 0 0 40 0 40 -160 0 -160 0 0 -40z"/>
<path d="M2795 4128 c-16 -48 -103 -384 -100 -387 7 -6 248 -71 252 -67 2 2 8
18 13 35 8 29 6 33 -16 41 -14 6 -29 10 -33 10 -4 0 -30 7 -58 15 l-51 15 10
38 c5 20 14 41 19 46 5 6 35 2 74 -9 36 -9 68 -15 71 -13 2 3 9 19 14 36 8 31
8 32 -33 42 -96 25 -108 31 -102 51 19 70 9 66 105 40 l69 -20 10 37 c6 20 9
37 8 38 -4 4 -227 64 -237 64 -6 0 -13 -6 -15 -12z"/>
<path d="M1759 4012 c-43 -22 -59 -37 -77 -74 -21 -41 -22 -52 -13 -81 7 -19
23 -45 37 -58 22 -20 37 -24 97 -25 40 -1 80 -2 89 -3 25 -1 41 -36 29 -60
-12 -22 -79 -51 -117 -51 -24 0 -26 -3 -20 -31 3 -17 6 -35 6 -40 0 -13 41
-11 81 3 120 41 176 128 134 208 -25 49 -51 60 -142 60 -61 0 -86 4 -97 16
-28 28 3 64 72 85 43 12 46 17 36 57 -9 31 -48 29 -115 -6z"/>
<path d="M3225 3833 c-91 -163 -121 -185 -178 -135 -17 15 -20 14 -42 -13 -17
-23 -20 -33 -12 -43 21 -26 87 -52 131 -52 38 0 51 5 78 33 29 30 168 265 168
285 0 7 -63 42 -75 42 -2 0 -34 -53 -70 -117z"/>
<path d="M1325 3710 l-39 -40 94 -192 c52 -106 95 -195 97 -197 2 -3 19 10 38
29 l34 33 -25 50 -26 50 38 38 c21 22 44 39 51 39 7 0 32 -12 55 -26 l41 -26
35 36 c20 19 34 37 32 39 -20 16 -365 207 -374 207 -7 0 -29 -18 -51 -40z
m194 -137 c5 -4 -50 -63 -59 -63 -4 0 -52 86 -78 143 -3 6 112 -61 137 -80z"/>
<path d="M3408 3627 l-187 -102 34 -34 34 -35 49 27 48 26 43 -43 43 -44 -27
-47 -28 -47 36 -36 c20 -20 38 -34 40 -32 2 3 48 90 101 194 l97 189 -42 43
c-24 24 -46 44 -49 43 -3 0 -89 -46 -192 -102z m146 -63 c-21 -38 -39 -71 -41
-73 -2 -3 -18 10 -36 28 -18 18 -27 35 -22 37 6 2 37 22 70 43 33 21 61 37 63
36 2 -2 -14 -34 -34 -71z"/>
<path d="M2515 3584 c42 -243 175 -485 375 -684 200 -199 441 -332 684 -374
l38 -7 -7 63 c-18 165 -53 285 -123 423 -109 212 -275 378 -489 487 -136 70
-257 105 -421 123 l-63 7 6 -38z"/>
<path d="M2196 3584 c-321 -79 -592 -301 -741 -608 -54 -110 -105 -282 -105
-353 0 -29 3 -33 38 -39 287 -49 550 -190 772 -413 227 -228 365 -486 415
-775 l6 -39 57 6 c92 10 210 45 310 92 250 118 427 292 547 539 54 110 105
282 105 353 0 29 -3 33 -37 39 -244 41 -454 140 -668 314 -247 201 -444 514
-505 803 -11 50 -20 95 -20 100 0 14 -75 6 -174 -19z"/>
<path d="M3774 3351 c-42 -26 -57 -74 -49 -154 6 -52 4 -67 -10 -80 -22 -23
-37 -21 -63 6 -24 26 -42 69 -42 102 0 22 -2 22 -41 13 -40 -11 -41 -11 -34
-47 10 -55 56 -131 95 -157 61 -42 144 -24 176 38 13 25 15 47 10 106 -7 78 1
102 34 102 25 0 58 -44 66 -87 6 -34 8 -35 43 -28 20 4 37 8 39 10 8 7 -20 85
-41 116 -49 73 -122 97 -183 60z"/>
<path d="M992 3279 c-13 -23 -22 -42 -20 -43 11 -10 336 -196 348 -200 11 -4
33 25 78 105 35 61 62 112 60 113 -29 19 -58 36 -62 36 -2 0 -21 -29 -40 -65
-20 -35 -40 -66 -44 -69 -5 -3 -48 19 -98 47 -49 29 -114 67 -144 84 l-55 32
-23 -40z"/>
<path d="M878 2415 c3 -23 9 -35 19 -35 10 0 13 6 9 16 -3 9 -6 24 -6 35 0 10
-6 19 -13 19 -9 0 -12 -11 -9 -35z"/>
<path d="M1340 2436 c0 -8 5 -50 11 -93 42 -309 198 -580 437 -761 171 -128
364 -202 590 -227 l63 -7 -6 38 c-79 452 -469 886 -920 1022 -134 41 -175 47
-175 28z"/>
<path d="M4060 2390 c0 -29 4 -40 15 -40 11 0 15 11 15 40 0 29 -4 40 -15 40
-11 0 -15 -11 -15 -40z"/>
<path d="M869 2221 c-20 -21 -29 -39 -29 -63 0 -52 11 -79 28 -76 13 2 16 14
13 51 -2 45 -1 48 30 61 17 7 40 11 51 8 24 -6 48 -40 48 -69 0 -23 23 -32 35
-13 11 18 -15 89 -42 109 -40 32 -97 28 -134 -8z"/>
<path d="M3931 2231 c-20 -37 -13 -89 14 -107 30 -20 55 -12 83 26 13 17 29
30 37 30 17 0 20 -33 5 -61 -9 -15 -7 -21 5 -25 23 -9 36 7 42 54 4 32 1 44
-16 61 -31 31 -57 26 -96 -16 -39 -42 -64 -37 -46 10 7 19 6 28 -4 37 -11 9
-16 7 -24 -9z"/>
<path d="M970 2021 c-41 -15 -75 -32 -75 -37 0 -5 6 -30 14 -56 10 -37 18 -48
33 -48 17 0 19 4 13 28 -14 51 -12 53 60 79 83 30 77 26 69 47 -8 22 -26 20
-114 -13z"/>
<path d="M3876 2009 c-58 -69 -9 -159 87 -159 43 0 73 22 87 64 21 65 -29 126
-105 126 -36 0 -48 -5 -69 -31z m112 -29 c35 -22 41 -49 15 -75 -32 -33 -113
4 -113 51 0 44 47 55 98 24z"/>
<path d="M1068 1849 c-90 -46 -107 -91 -59 -150 27 -33 74 -30 144 10 49 28
56 35 47 51 -9 17 -13 17 -62 -11 -64 -35 -104 -38 -113 -9 -9 28 4 41 74 75
52 24 59 31 50 47 -12 23 -13 23 -81 -13z"/>
<path d="M3781 1796 c-31 -49 -28 -101 8 -136 54 -55 114 -47 159 20 30 46 25
66 -25 96 l-42 25 -16 -32 c-20 -37 -7 -61 20 -39 13 11 19 11 32 -2 14 -14
13 -18 -6 -37 -25 -25 -58 -27 -89 -5 -26 18 -29 59 -6 92 16 23 13 52 -5 52
-5 0 -19 -15 -30 -34z"/>
<path d="M1169 1627 c-41 -29 -75 -60 -77 -68 -1 -8 13 -31 32 -52 43 -47 80
-50 104 -7 9 16 24 30 33 30 45 0 51 56 13 112 -15 21 -28 38 -29 38 -1 0 -35
-24 -76 -53z m91 -27 c15 -27 -15 -40 -38 -16 -15 15 -15 18 -2 26 22 14 28
12 40 -10z m-60 -62 c0 -25 -28 -34 -48 -15 -14 15 -14 18 3 37 21 23 45 11
45 -22z"/>
<path d="M3663 1612 c-10 -16 -2 -26 68 -76 75 -54 99 -62 99 -32 0 11 -140
126 -152 126 -2 0 -8 -8 -15 -18z"/>
<path d="M3584 1509 c-18 -20 -18 -22 13 -80 17 -33 28 -59 24 -57 -3 2 -30
16 -60 31 l-54 29 -20 -21 -20 -20 62 -70 c35 -39 66 -71 70 -71 4 0 12 5 19
12 10 10 1 24 -40 66 l-53 55 68 -38 c94 -52 106 -39 53 58 l-39 72 58 -53
c53 -49 59 -52 74 -37 17 17 12 23 -100 115 l-36 30 -19 -21z"/>
<path d="M1409 1393 c-19 -21 -47 -53 -63 -70 l-30 -33 25 -26 c59 -63 115
-70 165 -20 49 49 47 93 -6 146 -22 22 -44 40 -48 40 -4 0 -24 -17 -43 -37z
m81 -46 c13 -24 13 -29 -2 -54 -23 -40 -60 -51 -93 -29 l-26 17 43 49 c24 27
48 48 53 46 6 -1 17 -15 25 -29z"/>
<path d="M3346 1295 c-17 -13 -17 -17 14 -109 17 -53 35 -96 39 -96 17 0 29
25 24 51 -7 37 27 58 61 35 21 -13 25 -13 39 1 15 15 10 21 -61 74 -42 32 -81
58 -87 58 -5 0 -18 -6 -29 -14z m80 -80 c-5 -18 -33 -16 -39 2 -2 10 -8 27
-13 38 -7 18 -4 17 23 -5 18 -14 31 -29 29 -35z"/>
<path d="M1570 1200 c-29 -44 -51 -82 -49 -84 2 -2 26 -17 54 -34 36 -22 52
-27 57 -19 12 18 10 21 -22 40 -33 20 -35 24 -20 47 8 13 13 13 40 -3 29 -17
50 -16 50 3 0 5 -13 17 -29 26 -25 14 -28 21 -20 36 10 18 11 18 43 -2 29 -17
35 -18 46 -5 10 12 4 19 -36 45 -26 16 -51 30 -55 30 -3 0 -30 -36 -59 -80z"/>
<path d="M3113 1163 c-8 -3 -13 -23 -13 -49 0 -24 -3 -44 -7 -44 -4 0 -19 12
-35 27 -22 21 -32 24 -49 17 -20 -9 -19 -12 30 -53 29 -24 58 -59 66 -77 15
-35 21 -39 43 -26 10 7 9 16 -3 46 -12 29 -15 54 -9 102 6 62 3 68 -23 57z"/>
<path d="M1855 1048 c-28 -72 -33 -93 -23 -99 22 -14 29 -10 40 21 9 28 13 30
43 24 47 -8 71 2 85 36 17 41 -5 73 -64 93 l-45 15 -36 -90z m93 33 c23 -14
10 -46 -21 -49 -30 -4 -31 -3 -17 32 10 28 17 31 38 17z"/>
<path d="M2117 1038 c-51 -82 -86 -151 -82 -159 10 -16 34 -10 45 11 16 30 58
26 73 -7 12 -28 25 -43 40 -43 7 0 0 200 -7 206 0 1 -13 4 -28 8 -22 5 -30 2
-41 -16z m29 -95 c-3 -3 -12 -3 -21 0 -13 6 -13 10 3 43 l17 37 3 -37 c2 -21
1 -40 -2 -43z"/>
<path d="M2742 1042 c-10 -7 -9 -23 3 -83 25 -118 20 -112 72 -104 61 9 73 14
73 32 0 13 -9 15 -43 10 l-44 -6 -14 76 c-14 76 -23 90 -47 75z"/>
<path d="M2300 983 c0 -27 -3 -71 -6 -99 l-6 -51 36 -7 c47 -9 111 9 131 37
21 29 19 99 -2 126 -18 22 -74 40 -125 41 -27 0 -28 -2 -28 -47z m95 1 c25
-10 36 -49 24 -81 -12 -32 -26 -43 -56 -43 -22 0 -23 4 -23 65 0 68 8 77 55
59z"/>
<path d="M2568 1023 c-26 -4 -28 -8 -28 -51 0 -26 3 -70 6 -98 l7 -52 61 5
c33 3 62 7 64 8 1 1 0 10 -4 19 -5 12 -14 15 -45 10 -37 -6 -39 -5 -39 19 0
22 5 26 32 29 22 2 34 9 36 21 3 14 -4 17 -37 17 -34 0 -41 3 -41 20 0 17 7
20 40 20 33 0 40 3 40 20 0 21 -21 24 -92 13z"/>
</g>
</svg>
