<svg width="303" height="304" viewBox="0 0 303 304" fill="none" xmlns="http://www.w3.org/2000/svg">
<path d="M156.666 5.06667C162.266 37.4667 180 69.7333 206.666 96.2667C233.333 122.8 265.466 140.533 297.866 146.133L302.933 147.067L302 138.667C299.6 116.667 294.933 100.667 285.6 82.2667C271.066 54 248.933 31.8667 220.4 17.3333C202.266 8 186.133 3.33333 164.266 0.933333L155.866 0L156.666 5.06667Z" fill="#ffffff"/>
<path d="M114.133 5.06643C71.333 15.5998 35.1997 45.1998 15.333 86.1331C8.13301 100.8 1.33301 123.733 1.33301 133.2C1.33301 137.066 1.73301 137.6 6.39967 138.4C44.6663 144.933 79.733 163.733 109.333 193.466C139.6 223.866 158 258.266 164.666 296.8L165.466 302L173.066 301.2C185.333 299.866 201.066 295.2 214.4 288.933C247.733 273.2 271.333 250 287.333 217.066C294.533 202.4 301.333 179.466 301.333 170C301.333 166.133 300.933 165.6 296.4 164.8C263.866 159.333 235.866 146.133 207.333 122.933C174.4 96.1331 148.133 54.3998 140 15.8664C138.533 9.19976 137.333 3.19976 137.333 2.5331C137.333 0.666431 127.333 1.7331 114.133 5.06643Z" fill="#ffffff"/>
<path d="M0 158.133C0 159.2 0.666667 164.8 1.46667 170.533C7.06667 211.733 27.8667 247.867 59.7333 272C82.5333 289.067 108.267 298.933 138.4 302.267L146.8 303.2L146 298.133C135.467 237.867 83.4667 180 23.3333 161.867C5.46667 156.4 0 155.6 0 158.133Z" fill="#ffffff"/>
</svg>
